<svg xmlns="http://www.w3.org/2000/svg" width="24" height="24" viewBox="0 0 24 24">
  <g>
    <path fill="#4285F4" d="M21.805 10.023h-9.765v3.977h5.617c-.242 1.242-1.484 3.648-5.617 3.648-3.383 0-6.148-2.797-6.148-6.25s2.765-6.25 6.148-6.25c1.93 0 3.227.82 3.969 1.523l2.715-2.648c-1.711-1.594-3.922-2.574-6.684-2.574-5.523 0-10 4.477-10 10s4.477 10 10 10c5.742 0 9.547-4.023 9.547-9.719 0-.656-.07-1.156-.156-1.457z"/>
    <path fill="#34A853" d="M3.545 7.545l3.273 2.402c.891-1.672 2.523-2.797 4.482-2.797 1.094 0 2.125.375 2.922 1.016l2.715-2.648c-1.711-1.594-3.922-2.574-6.684-2.574-3.242 0-6.016 2.016-7.273 4.801z"/>
    <path fill="#FBBC05" d="M12 22c2.73 0 5.016-.898 6.684-2.441l-3.086-2.52c-.828.555-1.891.891-3.598.891-2.898 0-5.359-1.953-6.242-4.578l-3.242 2.5c1.242 2.789 4.016 4.648 7.484 4.648z"/>
    <path fill="#EA4335" d="M21.805 10.023h-9.765v3.977h5.617c-.242 1.242-1.484 3.648-5.617 3.648-3.383 0-6.148-2.797-6.148-6.25s2.765-6.25 6.148-6.25c1.93 0 3.227.82 3.969 1.523l2.715-2.648c-1.711-1.594-3.922-2.574-6.684-2.574-5.523 0-10 4.477-10 10s4.477 10 10 10c5.742 0 9.547-4.023 9.547-9.719 0-.656-.07-1.156-.156-1.457z" opacity=".1"/>
  </g>
</svg> 